PathFileType	4	(X/Y/Z)	output.trc
DataRate	CameraRate	NumFrames	NumMarkers	Units	OrigDataRate	OrigDataStartFrame	OrigNumFrames
100	100	16	23	m	100	1	4852
Frame#	Time	C7			T8			EL			EM			US			RS			AA			Fore_Clus_1			Fore_Clus_2			Fore_Clus_3			Fore_Clus_4			Hum_Clus_1			Hum_Clus_2			Hum_Clus_3			Hum_Clus_4			Thor_Clus_1			Thor_Clus_2			Thor_Clus_3			Thor_Clus_4			IJ			PX			GH			Thor_Clus_5		
		X1	Y1	Z1	X2	Y2	Z2	X3	Y3	Z3	X4	Y4	Z4	X5	Y5	Z5	X6	Y6	Z6	X7	Y7	Z7	X8	Y8	Z8	X9	Y9	Z9	X10	Y10	Z10	X11	Y11	Z11	X12	Y12	Z12	X13	Y13	Z13	X14	Y14	Z14	X15	Y15	Z15	X16	Y16	Z16	X17	Y17	Z17	X18	Y18	Z18	X19	Y19	Z19	X20	Y20	Z20	X21	Y21	Z21	X22	Y22	Z22	X23	Y23	Z23
0	0.000000	-0.094694	1.581904	-0.025759	-0.113356	1.328972	-0.126005	-0.274743	1.149274	0.099962	-0.221940	1.133604	0.047307	-0.268623	0.873165	0.162951	-0.213604	0.893031	0.187267	-0.233477	1.468434	0.084404	-0.287224	0.932455	0.185393	-0.282532	0.880271	0.200770	-0.258519	0.885588	0.214162	-0.248782	0.941967	0.207229	-0.256879	1.249588	0.154455	-0.296303	1.261129	0.109779	-0.300231	1.324378	0.114655	-0.256042	1.323793	0.154065	0.045216	1.448730	0.077178	0.009559	1.385260	0.120458	0.008345	1.439542	0.100622	0.062665	1.398017	0.085887	-0.021590	1.478806	0.044929	0.016006	1.289675	0.051400	-0.205400	1.445187	0.077115	0.001776	1.407632	0.116136
1	0.010000	-0.094686	1.581921	-0.025708	-0.113452	1.329009	-0.125986	-0.274795	1.149284	0.100038	-0.222019	1.133588	0.047363	-0.268581	0.873117	0.163017	-0.213598	0.892999	0.187401	-0.233456	1.468469	0.084490	-0.287265	0.932483	0.185454	-0.282563	0.880283	0.200806	-0.258576	0.885602	0.214190	-0.248822	0.941990	0.207266	-0.256881	1.249605	0.154494	-0.296605	1.260956	0.110402	-0.300230	1.324402	0.114722	-0.256033	1.323804	0.154128	0.045214	1.448694	0.077157	0.009567	1.385238	0.120448	0.008366	1.439528	0.100618	0.062676	1.397982	0.085867	-0.021582	1.478793	0.044936	0.015967	1.289651	0.051363	-0.205382	1.445173	0.077098	0.001811	1.407543	0.116103
2	0.020000	-0.094675	1.581938	-0.025649	-0.113546	1.329050	-0.125966	-0.274849	1.149291	0.100128	-0.222106	1.133566	0.047429	-0.268529	0.873060	0.163086	-0.213586	0.892958	0.187546	-0.233432	1.468503	0.084582	-0.287310	0.932531	0.185493	-0.282602	0.880303	0.200846	-0.258620	0.885624	0.214228	-0.248831	0.942002	0.207291	-0.256873	1.249611	0.154542	-0.296468	1.261081	0.110165	-0.300231	1.324428	0.114792	-0.256011	1.323814	0.154172	0.045236	1.448665	0.077126	0.009594	1.385198	0.120424	0.008379	1.439490	0.100598	0.062672	1.397945	0.085840	-0.021570	1.478778	0.044948	0.015932	1.289625	0.051326	-0.205361	1.445154	0.077073	0.001827	1.407544	0.116099
3	0.030000	-0.094656	1.581957	-0.025586	-0.113627	1.329096	-0.125952	-0.274905	1.149294	0.100235	-0.222198	1.133535	0.047511	-0.268471	0.872994	0.163162	-0.213571	0.892908	0.187705	-0.233402	1.468533	0.084670	-0.287334	0.932553	0.185546	-0.282629	0.880327	0.200890	-0.258649	0.885643	0.214268	-0.248861	0.942019	0.207329	-0.256860	1.249632	0.154591	-0.296463	1.261116	0.110213	-0.300223	1.324454	0.114868	-0.255996	1.323848	0.154243	0.045249	1.448635	0.077123	0.009617	1.385159	0.120401	0.008406	1.439463	0.100586	0.062696	1.397891	0.085800	-0.021552	1.478763	0.044962	0.015905	1.289599	0.051285	-0.205335	1.445127	0.077042	0.001865	1.407512	0.116080
4	0.040000	-0.094629	1.581977	-0.025519	-0.113691	1.329145	-0.125944	-0.274960	1.149297	0.100357	-0.222294	1.133500	0.047602	-0.268414	0.872922	0.163243	-0.213555	0.892851	0.187867	-0.233367	1.468556	0.084751	-0.287358	0.932566	0.185588	-0.282667	0.880340	0.200928	-0.258648	0.885635	0.214320	-0.248896	0.942044	0.207381	-0.256860	1.249653	0.154654	-0.296618	1.261043	0.110590	-0.300197	1.324482	0.114970	-0.255968	1.323848	0.154334	0.045284	1.448595	0.077077	0.009636	1.385132	0.120393	0.008444	1.439423	0.100577	0.062710	1.397848	0.085776	-0.021527	1.478747	0.044979	0.015887	1.289573	0.051241	-0.205307	1.445097	0.077009	0.001908	1.407445	0.116064
5	0.050000	-0.094595	1.581995	-0.025448	-0.113743	1.329196	-0.125938	-0.275010	1.149300	0.100483	-0.222388	1.133469	0.047696	-0.268363	0.872854	0.163319	-0.213542	0.892793	0.188018	-0.233326	1.468575	0.084831	-0.287399	0.932596	0.185644	-0.282713	0.880351	0.200981	-0.258700	0.885659	0.214369	-0.248924	0.942045	0.207422	-0.256845	1.249661	0.154730	-0.296604	1.261076	0.110642	-0.300173	1.324494	0.115074	-0.255937	1.323849	0.154408	0.045318	1.448548	0.077076	0.009670	1.385086	0.120383	0.008477	1.439403	0.100597	0.062744	1.397791	0.085740	-0.021496	1.478730	0.045000	0.015878	1.289546	0.051199	-0.205277	1.445070	0.076985	0.001938	1.407403	0.116065
6	0.060000	-0.094550	1.582015	-0.025376	-0.113769	1.329252	-0.125943	-0.275055	1.149305	0.100618	-0.222480	1.133439	0.047794	-0.268324	0.872788	0.163400	-0.213534	0.892733	0.188161	-0.233279	1.468586	0.084897	-0.287448	0.932644	0.185715	-0.282744	0.880364	0.201030	-0.258736	0.885660	0.214396	-0.248951	0.942049	0.207466	-0.256811	1.249660	0.154796	-0.296601	1.261081	0.110740	-0.300149	1.324514	0.115174	-0.255873	1.323890	0.154381	0.045367	1.448503	0.077075	0.009717	1.385043	0.120376	0.008526	1.439348	0.100598	0.062767	1.397752	0.085722	-0.021455	1.478712	0.045023	0.015882	1.289518	0.051152	-0.205245	1.445045	0.076970	0.001983	1.407371	0.116067
7	0.070000	-0.094498	1.582033	-0.025300	-0.113783	1.329308	-0.125948	-0.275089	1.149315	0.100747	-0.222561	1.133423	0.047884	-0.268303	0.872735	0.163470	-0.213532	0.892678	0.188276	-0.233226	1.468593	0.084963	-0.287118	0.932238	0.185524	-0.282784	0.880386	0.201083	-0.258778	0.885671	0.214457	-0.248973	0.942052	0.207513	-0.256776	1.249673	0.154879	-0.296578	1.261102	0.110842	-0.300115	1.324541	0.115287	-0.255784	1.324053	0.154199	0.045409	1.448481	0.077065	0.009761	1.385004	0.120379	0.008586	1.439320	0.100601	0.062811	1.397715	0.085704	-0.021408	1.478694	0.045050	0.015896	1.289491	0.051109	-0.205213	1.445030	0.076978	0.002026	1.407322	0.116085
8	0.080000	-0.094435	1.582052	-0.025221	-0.113777	1.329366	-0.125958	-0.275112	1.149331	0.100871	-0.222631	1.133420	0.047966	-0.268304	0.872696	0.163537	-0.213539	0.892629	0.188365	-0.233166	1.468596	0.085020	-0.286381	0.931392	0.185059	-0.282823	0.880392	0.201138	-0.258843	0.885630	0.214558	-0.248985	0.942057	0.207560	-0.256732	1.249673	0.154964	-0.296558	1.261123	0.110964	-0.300074	1.324558	0.115416	-0.255755	1.323983	0.154432	0.045460	1.448436	0.077069	0.009818	1.384958	0.120379	0.008636	1.439280	0.100623	0.062868	1.397656	0.085703	-0.021352	1.478675	0.045081	0.015921	1.289464	0.051066	-0.205180	1.445025	0.077011	0.002077	1.407278	0.116096
9	0.090000	-0.094364	1.582073	-0.025140	-0.113756	1.329428	-0.125970	-0.275121	1.149355	0.100984	-0.222686	1.133434	0.048037	-0.268328	0.872673	0.163597	-0.213556	0.892588	0.188424	-0.233101	1.468596	0.085074	-0.286533	0.931528	0.185208	-0.282858	0.880406	0.201183	-0.258881	0.885618	0.214619	-0.249053	0.942065	0.207639	-0.256691	1.249699	0.155071	-0.296523	1.261145	0.111081	-0.300023	1.324579	0.115533	-0.255633	1.324136	0.154194	0.045522	1.448388	0.077082	0.009848	1.384901	0.120382	0.008722	1.439243	0.100636	0.062918	1.397585	0.085706	-0.021290	1.478658	0.045115	0.015955	1.289439	0.051025	-0.205146	1.445035	0.077074	0.002140	1.407227	0.116109
10	0.100000	-0.094286	1.582093	-0.025054	-0.113730	1.329489	-0.125975	-0.275113	1.149390	0.101078	-0.222721	1.133472	0.048088	-0.268378	0.872672	0.163645	-0.213583	0.892560	0.188442	-0.233029	1.468598	0.085133	-0.286527	0.931534	0.185249	-0.282886	0.880413	0.201239	-0.258915	0.885636	0.214672	-0.248706	0.942022	0.207396	-0.256618	1.249711	0.155151	-0.296488	1.261177	0.111190	-0.299975	1.324605	0.115666	-0.255571	1.324124	0.154342	0.045573	1.448330	0.077097	0.009923	1.384846	0.120361	0.008792	1.439209	0.100665	0.062978	1.397533	0.085695	-0.021221	1.478641	0.045155	0.015995	1.289414	0.050990	-0.205114	1.445065	0.077176	0.002205	1.407177	0.116128
11	0.110000	-0.094200	1.582117	-0.024963	-0.113692	1.329555	-0.125982	-0.275090	1.149433	0.101159	-0.222737	1.133529	0.048126	-0.268453	0.872690	0.163690	-0.213620	0.892542	0.188433	-0.232952	1.468601	0.085191	-0.286542	0.931575	0.185319	-0.282920	0.880441	0.201280	-0.258940	0.885649	0.214711	-0.248709	0.942036	0.207452	-0.256558	1.249744	0.155288	-0.296434	1.261222	0.111317	-0.299907	1.324639	0.115806	-0.255515	1.324128	0.154461	0.045636	1.448301	0.077118	0.010006	1.384784	0.120332	0.008882	1.439170	0.100696	0.063050	1.397484	0.085693	-0.021146	1.478626	0.045199	0.016040	1.289391	0.050957	-0.205078	1.445110	0.077311	0.002260	1.407145	0.116159
12	0.120000	-0.094112	1.582143	-0.024865	-0.113662	1.329622	-0.125975	-0.275050	1.149489	0.101216	-0.222730	1.133612	0.048143	-0.268551	0.872731	0.163722	-0.213667	0.892539	0.188385	-0.232870	1.468611	0.085264	-0.286554	0.931572	0.185365	-0.282934	0.880451	0.201329	-0.258967	0.885671	0.214754	-0.248703	0.942029	0.207469	-0.256498	1.249768	0.155400	-0.296348	1.261283	0.111467	-0.299841	1.324674	0.115954	-0.255429	1.324159	0.154538	0.045699	1.448248	0.077142	0.010059	1.384545	0.120060	0.008945	1.439135	0.100737	0.063117	1.397445	0.085695	-0.021067	1.478613	0.045249	0.016086	1.289369	0.050933	-0.205043	1.445176	0.077487	0.002327	1.407099	0.116192
13	0.130000	-0.094019	1.582173	-0.024761	-0.113636	1.329693	-0.125958	-0.274996	1.149556	0.101255	-0.222702	1.133716	0.048145	-0.268670	0.872790	0.163750	-0.213722	0.892549	0.188313	-0.232784	1.468630	0.085349	-0.286599	0.931653	0.185448	-0.282954	0.880482	0.201373	-0.258997	0.885683	0.214783	-0.248709	0.942044	0.207509	-0.256414	1.249793	0.155515	-0.296299	1.261330	0.111623	-0.299762	1.324727	0.116127	-0.255418	1.324065	0.155089	0.045769	1.448208	0.077173	0.010055	1.384604	0.120329	0.009011	1.439114	0.100800	0.063193	1.397413	0.085701	-0.020985	1.478602	0.045306	0.016130	1.289348	0.050916	-0.205005	1.445260	0.077697	0.002412	1.407063	0.116230
14	0.140000	-0.093924	1.582207	-0.024648	-0.113622	1.329766	-0.125928	-0.274929	1.149631	0.101279	-0.222656	1.133838	0.048134	-0.268803	0.872867	0.163774	-0.213784	0.892571	0.188220	-0.232695	1.468659	0.085450	-0.286478	0.931548	0.185437	-0.282979	0.880517	0.201421	-0.259002	0.885712	0.214820	-0.248702	0.942068	0.207547	-0.256346	1.249838	0.155650	-0.296243	1.261394	0.111792	-0.299687	1.324776	0.116305	-0.255394	1.323998	0.155544	0.045839	1.448179	0.077193	0.010148	1.384563	0.120325	0.009107	1.439085	0.100837	0.063269	1.397395	0.085705	-0.020901	1.478594	0.045369	0.016169	1.289330	0.050906	-0.204963	1.445359	0.077938	0.002483	1.407033	0.116271
15	0.150000	-0.093830	1.582245	-0.024526	-0.113631	1.329840	-0.125877	-0.274850	1.149716	0.101285	-0.222591	1.133979	0.048111	-0.268948	0.872959	0.163791	-0.213850	0.892605	0.188107	-0.232602	1.468704	0.085578	-0.287552	0.932802	0.186236	-0.282976	0.880561	0.201451	-0.259021	0.885748	0.214865	-0.248705	0.942098	0.207592	-0.256249	1.249886	0.155748	-0.296183	1.261468	0.111950	-0.299623	1.324840	0.116509	-0.255290	1.324069	0.155673	0.045914	1.448136	0.077258	0.010251	1.384550	0.120367	0.009181	1.439062	0.100897	0.063348	1.397345	0.085756	-0.020817	1.478589	0.045438	0.016199	1.289313	0.050908	-0.204918	1.445473	0.078206	0.002557	1.407013	0.116305
